<mxfile host="app.diagrams.net" modified="2023-03-04T05:01:06.894Z" agent="5.0 (Windows NT 10.0; Win64; x64) AppleWebKit/537.36 (KHTML, like Gecko) Chrome/110.0.0.0 Safari/537.36 Edg/110.0.1587.57" etag="2pydohCuSfA5A3CIRaNj" version="21.0.2" type="github">
  <diagram name="Page-1" id="o1DBvXX_NqN1sqmi2Cn0">
    <mxGraphModel dx="1000" dy="553" grid="1" gridSize="10" guides="1" tooltips="1" connect="1" arrows="1" fold="1" page="1" pageScale="1" pageWidth="3300" pageHeight="4681" math="0" shadow="0">
      <root>
        <mxCell id="0" />
        <mxCell id="1" parent="0" />
        <mxCell id="WlQzG4vFrhhL1V16HzDk-5" value="1" style="edgeStyle=orthogonalEdgeStyle;rounded=0;orthogonalLoop=1;jettySize=auto;html=1;entryX=0.5;entryY=0;entryDx=0;entryDy=0;" edge="1" parent="1" source="WlQzG4vFrhhL1V16HzDk-1" target="WlQzG4vFrhhL1V16HzDk-2">
          <mxGeometry relative="1" as="geometry" />
        </mxCell>
        <mxCell id="WlQzG4vFrhhL1V16HzDk-6" value="2" style="edgeStyle=orthogonalEdgeStyle;rounded=0;orthogonalLoop=1;jettySize=auto;html=1;" edge="1" parent="1" source="WlQzG4vFrhhL1V16HzDk-1" target="WlQzG4vFrhhL1V16HzDk-4">
          <mxGeometry relative="1" as="geometry" />
        </mxCell>
        <mxCell id="WlQzG4vFrhhL1V16HzDk-1" value="0, 0" style="rounded=0;whiteSpace=wrap;html=1;" vertex="1" parent="1">
          <mxGeometry x="1280" y="60" width="120" height="60" as="geometry" />
        </mxCell>
        <mxCell id="WlQzG4vFrhhL1V16HzDk-9" value="2" style="edgeStyle=orthogonalEdgeStyle;rounded=0;orthogonalLoop=1;jettySize=auto;html=1;entryX=0.5;entryY=0;entryDx=0;entryDy=0;" edge="1" parent="1" source="WlQzG4vFrhhL1V16HzDk-2" target="WlQzG4vFrhhL1V16HzDk-7">
          <mxGeometry relative="1" as="geometry" />
        </mxCell>
        <mxCell id="WlQzG4vFrhhL1V16HzDk-11" style="edgeStyle=orthogonalEdgeStyle;rounded=0;orthogonalLoop=1;jettySize=auto;html=1;entryX=0.5;entryY=0;entryDx=0;entryDy=0;" edge="1" parent="1" source="WlQzG4vFrhhL1V16HzDk-2" target="WlQzG4vFrhhL1V16HzDk-10">
          <mxGeometry relative="1" as="geometry">
            <Array as="points">
              <mxPoint x="1220" y="210" />
            </Array>
          </mxGeometry>
        </mxCell>
        <mxCell id="WlQzG4vFrhhL1V16HzDk-12" value="5" style="edgeLabel;html=1;align=center;verticalAlign=middle;resizable=0;points=[];" vertex="1" connectable="0" parent="WlQzG4vFrhhL1V16HzDk-11">
          <mxGeometry x="-0.5327" y="-2" relative="1" as="geometry">
            <mxPoint as="offset" />
          </mxGeometry>
        </mxCell>
        <mxCell id="WlQzG4vFrhhL1V16HzDk-2" value="9, 0" style="rounded=0;whiteSpace=wrap;html=1;" vertex="1" parent="1">
          <mxGeometry x="1040" y="180" width="120" height="60" as="geometry" />
        </mxCell>
        <mxCell id="WlQzG4vFrhhL1V16HzDk-14" style="edgeStyle=orthogonalEdgeStyle;rounded=0;orthogonalLoop=1;jettySize=auto;html=1;entryX=0.5;entryY=0;entryDx=0;entryDy=0;" edge="1" parent="1" source="WlQzG4vFrhhL1V16HzDk-4" target="WlQzG4vFrhhL1V16HzDk-13">
          <mxGeometry relative="1" as="geometry">
            <Array as="points">
              <mxPoint x="1420" y="210" />
            </Array>
          </mxGeometry>
        </mxCell>
        <mxCell id="WlQzG4vFrhhL1V16HzDk-17" value="1" style="edgeLabel;html=1;align=center;verticalAlign=middle;resizable=0;points=[];" vertex="1" connectable="0" parent="WlQzG4vFrhhL1V16HzDk-14">
          <mxGeometry x="0.0489" y="-1" relative="1" as="geometry">
            <mxPoint as="offset" />
          </mxGeometry>
        </mxCell>
        <mxCell id="WlQzG4vFrhhL1V16HzDk-16" style="edgeStyle=orthogonalEdgeStyle;rounded=0;orthogonalLoop=1;jettySize=auto;html=1;" edge="1" parent="1" source="WlQzG4vFrhhL1V16HzDk-4" target="WlQzG4vFrhhL1V16HzDk-15">
          <mxGeometry relative="1" as="geometry" />
        </mxCell>
        <mxCell id="WlQzG4vFrhhL1V16HzDk-19" value="6" style="edgeLabel;html=1;align=center;verticalAlign=middle;resizable=0;points=[];" vertex="1" connectable="0" parent="WlQzG4vFrhhL1V16HzDk-16">
          <mxGeometry x="-0.2084" y="2" relative="1" as="geometry">
            <mxPoint as="offset" />
          </mxGeometry>
        </mxCell>
        <mxCell id="WlQzG4vFrhhL1V16HzDk-4" value="0, 4" style="rounded=0;whiteSpace=wrap;html=1;" vertex="1" parent="1">
          <mxGeometry x="1480" y="180" width="120" height="60" as="geometry" />
        </mxCell>
        <mxCell id="WlQzG4vFrhhL1V16HzDk-7" value="9, 4" style="rounded=0;whiteSpace=wrap;html=1;" vertex="1" parent="1">
          <mxGeometry x="910" y="340" width="120" height="60" as="geometry" />
        </mxCell>
        <mxCell id="WlQzG4vFrhhL1V16HzDk-10" value="5, 4" style="rounded=0;whiteSpace=wrap;html=1;" vertex="1" parent="1">
          <mxGeometry x="1160" y="340" width="120" height="60" as="geometry" />
        </mxCell>
        <mxCell id="WlQzG4vFrhhL1V16HzDk-13" value="9, 4" style="rounded=0;whiteSpace=wrap;html=1;fillColor=#fff2cc;strokeColor=#d6b656;" vertex="1" parent="1">
          <mxGeometry x="1360" y="340" width="120" height="60" as="geometry" />
        </mxCell>
        <mxCell id="WlQzG4vFrhhL1V16HzDk-15" value="" style="rounded=0;whiteSpace=wrap;html=1;" vertex="1" parent="1">
          <mxGeometry x="1610" y="340" width="120" height="60" as="geometry" />
        </mxCell>
      </root>
    </mxGraphModel>
  </diagram>
</mxfile>
